<svg width="192" height="143" viewBox="0 0 192 143" fill="none" xmlns="http://www.w3.org/2000/svg">
<path d="M12.3 135.11C10.64 135.11 9.1 134.84 7.68 134.3C6.28 133.74 5.05 132.96 3.99 131.96C2.95 130.96 2.14 129.79 1.56 128.45C0.98 127.11 0.69 125.65 0.69 124.07C0.69 122.47 0.99 121 1.59 119.66C2.21 118.32 3.06 117.16 4.14 116.18C5.24 115.18 6.51 114.41 7.95 113.87C9.39 113.31 10.93 113.03 12.57 113.03C14.55 113.03 16.32 113.37 17.88 114.05C19.46 114.73 20.74 115.65 21.72 116.81L17.67 120.86C16.93 120 16.16 119.36 15.36 118.94C14.56 118.52 13.6 118.31 12.48 118.31C11.42 118.31 10.46 118.55 9.6 119.03C8.74 119.49 8.05 120.15 7.53 121.01C7.03 121.87 6.78 122.88 6.78 124.04C6.78 125.2 7.01 126.22 7.47 127.1C7.95 127.96 8.61 128.63 9.45 129.11C10.29 129.59 11.27 129.83 12.39 129.83C13.47 129.83 14.38 129.62 15.12 129.2C15.86 128.78 16.42 128.18 16.8 127.4C17.2 126.62 17.4 125.7 17.4 124.64L21.51 127.25L11.58 126.95V122.15H23.43V123.05C23.43 125.61 22.96 127.79 22.02 129.59C21.1 131.39 19.8 132.76 18.12 133.7C16.46 134.64 14.52 135.11 12.3 135.11ZM31.4663 135.05C30.0863 135.05 28.8663 134.72 27.8063 134.06C26.7463 133.4 25.9163 132.5 25.3163 131.36C24.7163 130.2 24.4163 128.87 24.4163 127.37C24.4163 125.87 24.7163 124.54 25.3163 123.38C25.9163 122.22 26.7463 121.32 27.8063 120.68C28.8663 120.02 30.0863 119.69 31.4663 119.69C32.3263 119.69 33.1163 119.84 33.8363 120.14C34.5763 120.42 35.1863 120.82 35.6663 121.34C36.1663 121.86 36.4863 122.46 36.6263 123.14V131.6C36.4863 132.28 36.1663 132.88 35.6663 133.4C35.1863 133.92 34.5763 134.33 33.8363 134.63C33.1163 134.91 32.3263 135.05 31.4663 135.05ZM32.7863 129.89C33.5263 129.89 34.1163 129.66 34.5563 129.2C35.0163 128.72 35.2463 128.11 35.2463 127.37C35.2463 126.87 35.1463 126.44 34.9463 126.08C34.7463 125.7 34.4563 125.4 34.0763 125.18C33.7163 124.96 33.2963 124.85 32.8163 124.85C32.3363 124.85 31.9063 124.96 31.5263 125.18C31.1663 125.4 30.8763 125.7 30.6563 126.08C30.4363 126.46 30.3263 126.89 30.3263 127.37C30.3263 127.85 30.4263 128.28 30.6263 128.66C30.8463 129.04 31.1463 129.34 31.5263 129.56C31.9063 129.78 32.3263 129.89 32.7863 129.89ZM35.0663 134.75V130.79L35.8763 127.19L35.0663 123.62V119.99H40.7963V134.75H35.0663ZM43.6268 134.75V119.99H49.5068V134.75H43.6268ZM52.7168 134.75V126.29C52.7168 125.79 52.5668 125.4 52.2668 125.12C51.9668 124.82 51.5868 124.67 51.1268 124.67C50.8068 124.67 50.5168 124.74 50.2568 124.88C50.0168 125 49.8268 125.18 49.6868 125.42C49.5668 125.66 49.5068 125.95 49.5068 126.29L47.2268 125.45C47.2268 124.25 47.4868 123.22 48.0068 122.36C48.5468 121.5 49.2668 120.84 50.1668 120.38C51.0668 119.92 52.0868 119.69 53.2268 119.69C54.2268 119.69 55.1268 119.93 55.9268 120.41C56.7468 120.89 57.3968 121.56 57.8768 122.42C58.3568 123.26 58.5968 124.26 58.5968 125.42V134.75H52.7168ZM61.8068 134.75V126.29C61.8068 125.79 61.6568 125.4 61.3568 125.12C61.0568 124.82 60.6768 124.67 60.2168 124.67C59.8968 124.67 59.6068 124.74 59.3468 124.88C59.1068 125 58.9168 125.18 58.7768 125.42C58.6568 125.66 58.5968 125.95 58.5968 126.29L55.1468 126.32C55.1468 124.94 55.4168 123.76 55.9568 122.78C56.5168 121.78 57.2868 121.02 58.2668 120.5C59.2468 119.96 60.3668 119.69 61.6268 119.69C62.8068 119.69 63.8468 119.94 64.7468 120.44C65.6668 120.94 66.3868 121.66 66.9068 122.6C67.4268 123.54 67.6868 124.67 67.6868 125.99V134.75H61.8068ZM77.8498 135.11C76.1298 135.11 74.6198 134.79 73.3198 134.15C72.0198 133.49 70.9998 132.58 70.2598 131.42C69.5398 130.24 69.1798 128.89 69.1798 127.37C69.1798 125.87 69.5298 124.54 70.2298 123.38C70.9498 122.22 71.9298 121.31 73.1698 120.65C74.4098 119.97 75.8098 119.63 77.3698 119.63C78.9098 119.63 80.2698 119.95 81.4498 120.59C82.6298 121.21 83.5498 122.08 84.2098 123.2C84.8898 124.32 85.2298 125.6 85.2298 127.04C85.2298 127.34 85.2098 127.66 85.1698 128C85.1498 128.32 85.0898 128.7 84.9898 129.14L71.6698 129.23V125.63L82.7998 125.54L80.0698 127.13C80.0698 126.33 79.9698 125.68 79.7698 125.18C79.5898 124.66 79.3098 124.27 78.9298 124.01C78.5498 123.75 78.0698 123.62 77.4898 123.62C76.8898 123.62 76.3698 123.77 75.9298 124.07C75.4898 124.37 75.1498 124.8 74.9098 125.36C74.6898 125.92 74.5798 126.6 74.5798 127.4C74.5798 128.22 74.6998 128.91 74.9398 129.47C75.1998 130.01 75.5698 130.42 76.0498 130.7C76.5298 130.98 77.1298 131.12 77.8498 131.12C78.5498 131.12 79.1598 131.01 79.6798 130.79C80.2198 130.55 80.7098 130.18 81.1498 129.68L84.0898 132.59C83.3498 133.43 82.4598 134.06 81.4198 134.48C80.3798 134.9 79.1898 135.11 77.8498 135.11ZM87.3462 134.75V113.39H93.3462V134.75H87.3462ZM92.2062 127.16V122.18H102.706V127.16H92.2062ZM92.2062 118.37V113.39H103.156V118.37H92.2062ZM112.473 135.11C110.853 135.11 109.403 134.78 108.123 134.12C106.863 133.44 105.863 132.51 105.123 131.33C104.403 130.15 104.043 128.82 104.043 127.34C104.043 125.86 104.403 124.54 105.123 123.38C105.843 122.22 106.833 121.31 108.093 120.65C109.373 119.97 110.823 119.63 112.443 119.63C114.063 119.63 115.503 119.97 116.763 120.65C118.023 121.31 119.013 122.22 119.733 123.38C120.473 124.54 120.843 125.86 120.843 127.34C120.843 128.82 120.483 130.15 119.763 131.33C119.043 132.51 118.053 133.44 116.793 134.12C115.533 134.78 114.093 135.11 112.473 135.11ZM112.443 129.95C112.943 129.95 113.373 129.85 113.733 129.65C114.113 129.43 114.403 129.13 114.603 128.75C114.803 128.35 114.903 127.89 114.903 127.37C114.903 126.85 114.793 126.4 114.573 126.02C114.373 125.62 114.093 125.32 113.733 125.12C113.373 124.9 112.943 124.79 112.443 124.79C111.963 124.79 111.533 124.9 111.153 125.12C110.793 125.34 110.503 125.65 110.283 126.05C110.083 126.43 109.983 126.88 109.983 127.4C109.983 127.9 110.083 128.35 110.283 128.75C110.503 129.13 110.793 129.43 111.153 129.65C111.533 129.85 111.963 129.95 112.443 129.95ZM122.67 134.75V119.99H128.55V134.75H122.67ZM128.55 126.77L125.82 124.34C126.58 122.74 127.46 121.57 128.46 120.83C129.48 120.07 130.75 119.69 132.27 119.69C132.95 119.69 133.53 119.77 134.01 119.93C134.51 120.09 134.91 120.32 135.21 120.62L131.91 125.3C131.77 125.14 131.56 125.01 131.28 124.91C131.02 124.79 130.71 124.73 130.35 124.73C129.75 124.73 129.3 124.91 129 125.27C128.7 125.61 128.55 126.11 128.55 126.77ZM135.824 134.75V119.99H141.704V134.75H135.824ZM144.914 134.75V126.29C144.914 125.79 144.764 125.4 144.464 125.12C144.164 124.82 143.784 124.67 143.324 124.67C143.004 124.67 142.714 124.74 142.454 124.88C142.214 125 142.024 125.18 141.884 125.42C141.764 125.66 141.704 125.95 141.704 126.29L139.424 125.45C139.424 124.25 139.684 123.22 140.204 122.36C140.744 121.5 141.464 120.84 142.364 120.38C143.264 119.92 144.284 119.69 145.424 119.69C146.424 119.69 147.324 119.93 148.124 120.41C148.944 120.89 149.594 121.56 150.074 122.42C150.554 123.26 150.794 124.26 150.794 125.42V134.75H144.914ZM154.004 134.75V126.29C154.004 125.79 153.854 125.4 153.554 125.12C153.254 124.82 152.874 124.67 152.414 124.67C152.094 124.67 151.804 124.74 151.544 124.88C151.304 125 151.114 125.18 150.974 125.42C150.854 125.66 150.794 125.95 150.794 126.29L147.344 126.32C147.344 124.94 147.614 123.76 148.154 122.78C148.714 121.78 149.484 121.02 150.464 120.5C151.444 119.96 152.564 119.69 153.824 119.69C155.004 119.69 156.044 119.94 156.944 120.44C157.864 120.94 158.584 121.66 159.104 122.6C159.624 123.54 159.884 124.67 159.884 125.99V134.75H154.004ZM170.047 135.11C168.327 135.11 166.817 134.79 165.517 134.15C164.217 133.49 163.197 132.58 162.457 131.42C161.737 130.24 161.377 128.89 161.377 127.37C161.377 125.87 161.727 124.54 162.427 123.38C163.147 122.22 164.127 121.31 165.367 120.65C166.607 119.97 168.007 119.63 169.567 119.63C171.107 119.63 172.467 119.95 173.647 120.59C174.827 121.21 175.747 122.08 176.407 123.2C177.087 124.32 177.427 125.6 177.427 127.04C177.427 127.34 177.407 127.66 177.367 128C177.347 128.32 177.287 128.7 177.187 129.14L163.867 129.23V125.63L174.997 125.54L172.267 127.13C172.267 126.33 172.167 125.68 171.967 125.18C171.787 124.66 171.507 124.27 171.127 124.01C170.747 123.75 170.267 123.62 169.687 123.62C169.087 123.62 168.567 123.77 168.127 124.07C167.687 124.37 167.347 124.8 167.107 125.36C166.887 125.92 166.777 126.6 166.777 127.4C166.777 128.22 166.897 128.91 167.137 129.47C167.397 130.01 167.767 130.42 168.247 130.7C168.727 130.98 169.327 131.12 170.047 131.12C170.747 131.12 171.357 131.01 171.877 130.79C172.417 130.55 172.907 130.18 173.347 129.68L176.287 132.59C175.547 133.43 174.657 134.06 173.617 134.48C172.577 134.9 171.387 135.11 170.047 135.11ZM179.183 134.75V119.99H185.063V134.75H179.183ZM185.063 126.77L182.333 124.34C183.093 122.74 183.973 121.57 184.973 120.83C185.993 120.07 187.263 119.69 188.783 119.69C189.463 119.69 190.043 119.77 190.523 119.93C191.023 120.09 191.423 120.32 191.723 120.62L188.423 125.3C188.283 125.14 188.073 125.01 187.793 124.91C187.533 124.79 187.223 124.73 186.863 124.73C186.263 124.73 185.813 124.91 185.513 125.27C185.213 125.61 185.063 126.11 185.063 126.77Z" fill="#FA7C1F"/>
<mask id="mask0_1_71" style="mask-type:alpha" maskUnits="userSpaceOnUse" x="46" y="0" width="100" height="101">
<circle cx="96" cy="50.25" r="40" stroke="#003CD7" stroke-width="20"/>
</mask>
<g mask="url(#mask0_1_71)">
<path d="M105.75 50.2V-1L44.8 -1.25V101.95H154.4V49.95L105.75 50.2Z" fill="#003CD7"/>
</g>
<rect x="106" y="30.25" width="20" height="20" fill="#FA7C1F"/>
</svg>
