<svg width="400" height="300" viewBox="0 0 400 300" fill="none" xmlns="http://www.w3.org/2000/svg">
<path d="M32.6 276.72C29.28 276.72 26.2 276.18 23.36 275.1C20.56 273.98 18.1 272.42 15.98 270.42C13.9 268.42 12.28 266.08 11.12 263.4C9.96 260.72 9.38 257.8 9.38 254.64C9.38 251.44 9.98 248.5 11.18 245.82C12.42 243.14 14.12 240.82 16.28 238.86C18.48 236.86 21.02 235.32 23.9 234.24C26.78 233.12 29.86 232.56 33.14 232.56C37.1 232.56 40.64 233.24 43.76 234.6C46.92 235.96 49.48 237.8 51.44 240.12L43.34 248.22C41.86 246.5 40.32 245.22 38.72 244.38C37.12 243.54 35.2 243.12 32.96 243.12C30.84 243.12 28.92 243.6 27.2 244.56C25.48 245.48 24.1 246.8 23.06 248.52C22.06 250.24 21.56 252.26 21.56 254.58C21.56 256.9 22.02 258.94 22.94 260.7C23.9 262.42 25.22 263.76 26.9 264.72C28.58 265.68 30.54 266.16 32.78 266.16C34.94 266.16 36.76 265.74 38.24 264.9C39.72 264.06 40.84 262.86 41.6 261.3C42.4 259.74 42.8 257.9 42.8 255.78L51.02 261L31.16 260.4V250.8H54.86V252.6C54.86 257.72 53.92 262.08 52.04 265.68C50.2 269.28 47.6 272.02 44.24 273.9C40.92 275.78 37.04 276.72 32.6 276.72ZM70.9325 276.6C68.1725 276.6 65.7325 275.94 63.6125 274.62C61.4925 273.3 59.8325 271.5 58.6325 269.22C57.4325 266.9 56.8325 264.24 56.8325 261.24C56.8325 258.24 57.4325 255.58 58.6325 253.26C59.8325 250.94 61.4925 249.14 63.6125 247.86C65.7325 246.54 68.1725 245.88 70.9325 245.88C72.6525 245.88 74.2325 246.18 75.6725 246.78C77.1525 247.34 78.3725 248.14 79.3325 249.18C80.3325 250.22 80.9725 251.42 81.2525 252.78V269.7C80.9725 271.06 80.3325 272.26 79.3325 273.3C78.3725 274.34 77.1525 275.16 75.6725 275.76C74.2325 276.32 72.6525 276.6 70.9325 276.6ZM73.5725 266.28C75.0525 266.28 76.2325 265.82 77.1125 264.9C78.0325 263.94 78.4925 262.72 78.4925 261.24C78.4925 260.24 78.2925 259.38 77.8925 258.66C77.4925 257.9 76.9125 257.3 76.1525 256.86C75.4325 256.42 74.5925 256.2 73.6325 256.2C72.6725 256.2 71.8125 256.42 71.0525 256.86C70.3325 257.3 69.7525 257.9 69.3125 258.66C68.8725 259.42 68.6525 260.28 68.6525 261.24C68.6525 262.2 68.8525 263.06 69.2525 263.82C69.6925 264.58 70.2925 265.18 71.0525 265.62C71.8125 266.06 72.6525 266.28 73.5725 266.28ZM78.1325 276V268.08L79.7525 260.88L78.1325 253.74V246.48H89.5925V276H78.1325ZM95.2536 276V246.48H107.014V276H95.2536ZM113.434 276V259.08C113.434 258.08 113.134 257.3 112.534 256.74C111.934 256.14 111.174 255.84 110.254 255.84C109.614 255.84 109.034 255.98 108.514 256.26C108.034 256.5 107.654 256.86 107.374 257.34C107.134 257.82 107.014 258.4 107.014 259.08L102.454 257.4C102.454 255 102.974 252.94 104.014 251.22C105.094 249.5 106.534 248.18 108.334 247.26C110.134 246.34 112.174 245.88 114.454 245.88C116.454 245.88 118.254 246.36 119.854 247.32C121.494 248.28 122.794 249.62 123.754 251.34C124.714 253.02 125.194 255.02 125.194 257.34V276H113.434ZM131.614 276V259.08C131.614 258.08 131.314 257.3 130.714 256.74C130.114 256.14 129.354 255.84 128.434 255.84C127.794 255.84 127.214 255.98 126.694 256.26C126.214 256.5 125.834 256.86 125.554 257.34C125.314 257.82 125.194 258.4 125.194 259.08L118.294 259.14C118.294 256.38 118.834 254.02 119.914 252.06C121.034 250.06 122.574 248.54 124.534 247.5C126.494 246.42 128.734 245.88 131.254 245.88C133.614 245.88 135.694 246.38 137.494 247.38C139.334 248.38 140.774 249.82 141.814 251.7C142.854 253.58 143.374 255.84 143.374 258.48V276H131.614ZM163.7 276.72C160.26 276.72 157.24 276.08 154.64 274.8C152.04 273.48 150 271.66 148.52 269.34C147.08 266.98 146.36 264.28 146.36 261.24C146.36 258.24 147.06 255.58 148.46 253.26C149.9 250.94 151.86 249.12 154.34 247.8C156.82 246.44 159.62 245.76 162.74 245.76C165.82 245.76 168.54 246.4 170.9 247.68C173.26 248.92 175.1 250.66 176.42 252.9C177.78 255.14 178.46 257.7 178.46 260.58C178.46 261.18 178.42 261.82 178.34 262.5C178.3 263.14 178.18 263.9 177.98 264.78L151.34 264.96V257.76L173.6 257.58L168.14 260.76C168.14 259.16 167.94 257.86 167.54 256.86C167.18 255.82 166.62 255.04 165.86 254.52C165.1 254 164.14 253.74 162.98 253.74C161.78 253.74 160.74 254.04 159.86 254.64C158.98 255.24 158.3 256.1 157.82 257.22C157.38 258.34 157.16 259.7 157.16 261.3C157.16 262.94 157.4 264.32 157.88 265.44C158.4 266.52 159.14 267.34 160.1 267.9C161.06 268.46 162.26 268.74 163.7 268.74C165.1 268.74 166.32 268.52 167.36 268.08C168.44 267.6 169.42 266.86 170.3 265.86L176.18 271.68C174.7 273.36 172.92 274.62 170.84 275.46C168.76 276.3 166.38 276.72 163.7 276.72ZM182.692 276V233.28H194.692V276H182.692ZM192.412 260.82V250.86H213.412V260.82H192.412ZM192.412 243.24V233.28H214.312V243.24H192.412ZM232.946 276.72C229.706 276.72 226.806 276.06 224.246 274.74C221.726 273.38 219.726 271.52 218.246 269.16C216.806 266.8 216.086 264.14 216.086 261.18C216.086 258.22 216.806 255.58 218.246 253.26C219.686 250.94 221.666 249.12 224.186 247.8C226.746 246.44 229.646 245.76 232.886 245.76C236.126 245.76 239.006 246.44 241.526 247.8C244.046 249.12 246.026 250.94 247.466 253.26C248.946 255.58 249.686 258.22 249.686 261.18C249.686 264.14 248.966 266.8 247.526 269.16C246.086 271.52 244.106 273.38 241.586 274.74C239.066 276.06 236.186 276.72 232.946 276.72ZM232.886 266.4C233.886 266.4 234.746 266.2 235.466 265.8C236.226 265.36 236.806 264.76 237.206 264C237.606 263.2 237.806 262.28 237.806 261.24C237.806 260.2 237.586 259.3 237.146 258.54C236.746 257.74 236.186 257.14 235.466 256.74C234.746 256.3 233.886 256.08 232.886 256.08C231.926 256.08 231.066 256.3 230.306 256.74C229.586 257.18 229.006 257.8 228.566 258.6C228.166 259.36 227.966 260.26 227.966 261.3C227.966 262.3 228.166 263.2 228.566 264C229.006 264.76 229.586 265.36 230.306 265.8C231.066 266.2 231.926 266.4 232.886 266.4ZM253.34 276V246.48H265.1V276H253.34ZM265.1 260.04L259.64 255.18C261.16 251.98 262.92 249.64 264.92 248.16C266.96 246.64 269.5 245.88 272.54 245.88C273.9 245.88 275.06 246.04 276.02 246.36C277.02 246.68 277.82 247.14 278.42 247.74L271.82 257.1C271.54 256.78 271.12 256.52 270.56 256.32C270.04 256.08 269.42 255.96 268.7 255.96C267.5 255.96 266.6 256.32 266 257.04C265.4 257.72 265.1 258.72 265.1 260.04ZM279.648 276V246.48H291.408V276H279.648ZM297.828 276V259.08C297.828 258.08 297.528 257.3 296.928 256.74C296.328 256.14 295.568 255.84 294.648 255.84C294.008 255.84 293.428 255.98 292.908 256.26C292.428 256.5 292.048 256.86 291.768 257.34C291.528 257.82 291.408 258.4 291.408 259.08L286.848 257.4C286.848 255 287.368 252.94 288.408 251.22C289.488 249.5 290.928 248.18 292.728 247.26C294.528 246.34 296.568 245.88 298.848 245.88C300.848 245.88 302.648 246.36 304.248 247.32C305.888 248.28 307.188 249.62 308.148 251.34C309.108 253.02 309.588 255.02 309.588 257.34V276H297.828ZM316.008 276V259.08C316.008 258.08 315.708 257.3 315.108 256.74C314.508 256.14 313.748 255.84 312.828 255.84C312.188 255.84 311.608 255.98 311.088 256.26C310.608 256.5 310.228 256.86 309.948 257.34C309.708 257.82 309.588 258.4 309.588 259.08L302.688 259.14C302.688 256.38 303.228 254.02 304.308 252.06C305.428 250.06 306.968 248.54 308.928 247.5C310.888 246.42 313.128 245.88 315.648 245.88C318.008 245.88 320.088 246.38 321.888 247.38C323.728 248.38 325.168 249.82 326.208 251.7C327.248 253.58 327.768 255.84 327.768 258.48V276H316.008ZM348.094 276.72C344.654 276.72 341.634 276.08 339.034 274.8C336.434 273.48 334.394 271.66 332.914 269.34C331.474 266.98 330.754 264.28 330.754 261.24C330.754 258.24 331.454 255.58 332.854 253.26C334.294 250.94 336.254 249.12 338.734 247.8C341.214 246.44 344.014 245.76 347.134 245.76C350.214 245.76 352.934 246.4 355.294 247.68C357.654 248.92 359.494 250.66 360.814 252.9C362.174 255.14 362.854 257.7 362.854 260.58C362.854 261.18 362.814 261.82 362.734 262.5C362.694 263.14 362.574 263.9 362.374 264.78L335.734 264.96V257.76L357.994 257.58L352.534 260.76C352.534 259.16 352.334 257.86 351.934 256.86C351.574 255.82 351.014 255.04 350.254 254.52C349.494 254 348.534 253.74 347.374 253.74C346.174 253.74 345.134 254.04 344.254 254.64C343.374 255.24 342.694 256.1 342.214 257.22C341.774 258.34 341.554 259.7 341.554 261.3C341.554 262.94 341.794 264.32 342.274 265.44C342.794 266.52 343.534 267.34 344.494 267.9C345.454 268.46 346.654 268.74 348.094 268.74C349.494 268.74 350.714 268.52 351.754 268.08C352.834 267.6 353.814 266.86 354.694 265.86L360.574 271.68C359.094 273.36 357.314 274.62 355.234 275.46C353.154 276.3 350.774 276.72 348.094 276.72ZM366.367 276V246.48H378.127V276H366.367ZM378.127 260.04L372.667 255.18C374.187 251.98 375.947 249.64 377.947 248.16C379.987 246.64 382.527 245.88 385.567 245.88C386.927 245.88 388.087 246.04 389.047 246.36C390.047 246.68 390.847 247.14 391.447 247.74L384.847 257.1C384.567 256.78 384.147 256.52 383.587 256.32C383.067 256.08 382.447 255.96 381.727 255.96C380.527 255.96 379.627 256.32 379.027 257.04C378.427 257.72 378.127 258.72 378.127 260.04Z" fill="#FA7C1F"/>
<mask id="mask0_1_21" style="mask-type:alpha" maskUnits="userSpaceOnUse" x="100" y="7" width="200" height="200">
<circle cx="200" cy="107" r="80" stroke="#003CD7" stroke-width="40"/>
</mask>
<g mask="url(#mask0_1_21)">
<path d="M219.5 106.9V4.5L97.6001 4V210.4H316.8V106.4L219.5 106.9Z" fill="#003CD7"/>
</g>
<rect x="220" y="67" width="40" height="40" fill="#FA7C1F"/>
</svg>
