<svg width="120" height="90" viewBox="0 0 120 90" fill="none" xmlns="http://www.w3.org/2000/svg">
<path d="M7.6875 84.5375C6.65 84.5375 5.6875 84.3688 4.8 84.0312C3.925 83.6812 3.15625 83.1937 2.49375 82.5687C1.84375 81.9437 1.3375 81.2125 0.975 80.375C0.6125 79.5375 0.43125 78.625 0.43125 77.6375C0.43125 76.6375 0.61875 75.7187 0.99375 74.8812C1.38125 74.0437 1.9125 73.3187 2.5875 72.7062C3.275 72.0812 4.06875 71.6 4.96875 71.2625C5.86875 70.9125 6.83125 70.7375 7.85625 70.7375C9.09375 70.7375 10.2 70.95 11.175 71.375C12.1625 71.8 12.9625 72.375 13.575 73.1L11.0438 75.6312C10.5813 75.0937 10.1 74.6937 9.6 74.4312C9.1 74.1687 8.5 74.0375 7.8 74.0375C7.1375 74.0375 6.5375 74.1875 6 74.4875C5.4625 74.775 5.03125 75.1875 4.70625 75.725C4.39375 76.2625 4.2375 76.8937 4.2375 77.6187C4.2375 78.3437 4.38125 78.9812 4.66875 79.5312C4.96875 80.0687 5.38125 80.4875 5.90625 80.7875C6.43125 81.0875 7.04375 81.2375 7.74375 81.2375C8.41875 81.2375 8.9875 81.1062 9.45 80.8437C9.9125 80.5812 10.2625 80.2062 10.5 79.7187C10.75 79.2312 10.875 78.6562 10.875 77.9937L13.4438 79.625L7.2375 79.4375V76.4375H14.6438V77C14.6438 78.6 14.35 79.9625 13.7625 81.0875C13.1875 82.2125 12.375 83.0687 11.325 83.6562C10.2875 84.2437 9.075 84.5375 7.6875 84.5375ZM19.6664 84.5C18.8039 84.5 18.0414 84.2937 17.3789 83.8812C16.7164 83.4687 16.1977 82.9062 15.8227 82.1937C15.4477 81.4687 15.2602 80.6375 15.2602 79.7C15.2602 78.7625 15.4477 77.9312 15.8227 77.2062C16.1977 76.4812 16.7164 75.9187 17.3789 75.5187C18.0414 75.1062 18.8039 74.9 19.6664 74.9C20.2039 74.9 20.6977 74.9937 21.1477 75.1812C21.6102 75.3562 21.9914 75.6062 22.2914 75.9312C22.6039 76.2562 22.8039 76.6312 22.8914 77.0562V82.3437C22.8039 82.7687 22.6039 83.1437 22.2914 83.4687C21.9914 83.7937 21.6102 84.05 21.1477 84.2375C20.6977 84.4125 20.2039 84.5 19.6664 84.5ZM20.4914 81.275C20.9539 81.275 21.3227 81.1312 21.5977 80.8437C21.8852 80.5437 22.0289 80.1625 22.0289 79.7C22.0289 79.3875 21.9664 79.1187 21.8414 78.8937C21.7164 78.6562 21.5352 78.4687 21.2977 78.3312C21.0727 78.1937 20.8102 78.125 20.5102 78.125C20.2102 78.125 19.9414 78.1937 19.7039 78.3312C19.4789 78.4687 19.2977 78.6562 19.1602 78.8937C19.0227 79.1312 18.9539 79.4 18.9539 79.7C18.9539 80 19.0164 80.2687 19.1414 80.5062C19.2789 80.7437 19.4664 80.9312 19.7039 81.0687C19.9414 81.2062 20.2039 81.275 20.4914 81.275ZM21.9164 84.3125V81.8375L22.4227 79.5875L21.9164 77.3562V75.0875H25.4977V84.3125H21.9164ZM27.2668 84.3125V75.0875H30.9418V84.3125H27.2668ZM32.948 84.3125V79.025C32.948 78.7125 32.8543 78.4687 32.6668 78.2937C32.4793 78.1062 32.2418 78.0125 31.9543 78.0125C31.7543 78.0125 31.573 78.0562 31.4105 78.1437C31.2605 78.2187 31.1418 78.3312 31.0543 78.4812C30.9793 78.6312 30.9418 78.8125 30.9418 79.025L29.5168 78.5C29.5168 77.75 29.6793 77.1062 30.0043 76.5687C30.3418 76.0312 30.7918 75.6187 31.3543 75.3312C31.9168 75.0437 32.5543 74.9 33.2668 74.9C33.8918 74.9 34.4543 75.05 34.9543 75.35C35.4668 75.65 35.873 76.0687 36.173 76.6062C36.473 77.1312 36.623 77.7562 36.623 78.4812V84.3125H32.948ZM38.6293 84.3125V79.025C38.6293 78.7125 38.5355 78.4687 38.348 78.2937C38.1605 78.1062 37.923 78.0125 37.6355 78.0125C37.4355 78.0125 37.2543 78.0562 37.0918 78.1437C36.9418 78.2187 36.823 78.3312 36.7355 78.4812C36.6605 78.6312 36.623 78.8125 36.623 79.025L34.4668 79.0437C34.4668 78.1812 34.6355 77.4437 34.973 76.8312C35.323 76.2062 35.8043 75.7312 36.4168 75.4062C37.0293 75.0687 37.7293 74.9 38.5168 74.9C39.2543 74.9 39.9043 75.0562 40.4668 75.3687C41.0418 75.6812 41.4918 76.1312 41.8168 76.7187C42.1418 77.3062 42.3043 78.0125 42.3043 78.8375V84.3125H38.6293ZM48.6561 84.5375C47.5811 84.5375 46.6374 84.3375 45.8249 83.9375C45.0124 83.525 44.3749 82.9562 43.9124 82.2312C43.4624 81.4937 43.2374 80.65 43.2374 79.7C43.2374 78.7625 43.4561 77.9312 43.8936 77.2062C44.3436 76.4812 44.9561 75.9125 45.7311 75.5C46.5061 75.075 47.3811 74.8625 48.3561 74.8625C49.3186 74.8625 50.1686 75.0625 50.9061 75.4625C51.6436 75.85 52.2186 76.3937 52.6311 77.0937C53.0561 77.7937 53.2686 78.5937 53.2686 79.4937C53.2686 79.6812 53.2561 79.8812 53.2311 80.0937C53.2186 80.2937 53.1811 80.5312 53.1186 80.8062L44.7936 80.8625V78.6125L51.7499 78.5562L50.0436 79.55C50.0436 79.05 49.9811 78.6437 49.8561 78.3312C49.7436 78.0062 49.5686 77.7625 49.3311 77.6C49.0936 77.4375 48.7936 77.3562 48.4311 77.3562C48.0561 77.3562 47.7311 77.45 47.4561 77.6375C47.1811 77.825 46.9686 78.0937 46.8186 78.4437C46.6811 78.7937 46.6124 79.2187 46.6124 79.7187C46.6124 80.2312 46.6874 80.6625 46.8374 81.0125C46.9999 81.35 47.2311 81.6062 47.5311 81.7812C47.8311 81.9562 48.2061 82.0437 48.6561 82.0437C49.0936 82.0437 49.4749 81.975 49.7999 81.8375C50.1374 81.6875 50.4436 81.4562 50.7186 81.1437L52.5561 82.9625C52.0936 83.4875 51.5374 83.8812 50.8874 84.1437C50.2374 84.4063 49.4936 84.5375 48.6561 84.5375ZM54.5914 84.3125V70.9625H58.3414V84.3125H54.5914ZM57.6289 79.5687V76.4562H64.1914V79.5687H57.6289ZM57.6289 74.075V70.9625H64.4726V74.075H57.6289ZM70.2957 84.5375C69.2832 84.5375 68.3769 84.3312 67.5769 83.9187C66.7894 83.4937 66.1644 82.9125 65.7019 82.175C65.2519 81.4375 65.0269 80.6062 65.0269 79.6812C65.0269 78.7562 65.2519 77.9312 65.7019 77.2062C66.1519 76.4812 66.7707 75.9125 67.5582 75.5C68.3582 75.075 69.2644 74.8625 70.2769 74.8625C71.2894 74.8625 72.1894 75.075 72.9769 75.5C73.7644 75.9125 74.3832 76.4812 74.8332 77.2062C75.2957 77.9312 75.5269 78.7562 75.5269 79.6812C75.5269 80.6062 75.3019 81.4375 74.8519 82.175C74.4019 82.9125 73.7832 83.4937 72.9957 83.9187C72.2082 84.3312 71.3082 84.5375 70.2957 84.5375ZM70.2769 81.3125C70.5894 81.3125 70.8582 81.25 71.0832 81.125C71.3207 80.9875 71.5019 80.8 71.6269 80.5625C71.7519 80.3125 71.8144 80.025 71.8144 79.7C71.8144 79.375 71.7457 79.0937 71.6082 78.8562C71.4832 78.6062 71.3082 78.4187 71.0832 78.2937C70.8582 78.1562 70.5894 78.0875 70.2769 78.0875C69.9769 78.0875 69.7082 78.1562 69.4707 78.2937C69.2457 78.4312 69.0644 78.625 68.9269 78.875C68.8019 79.1125 68.7394 79.3937 68.7394 79.7187C68.7394 80.0312 68.8019 80.3125 68.9269 80.5625C69.0644 80.8 69.2457 80.9875 69.4707 81.125C69.7082 81.25 69.9769 81.3125 70.2769 81.3125ZM76.6686 84.3125V75.0875H80.3436V84.3125H76.6686ZM80.3436 79.325L78.6374 77.8062C79.1124 76.8062 79.6624 76.075 80.2874 75.6125C80.9249 75.1375 81.7186 74.9 82.6686 74.9C83.0936 74.9 83.4561 74.95 83.7561 75.05C84.0686 75.15 84.3186 75.2937 84.5061 75.4812L82.4436 78.4062C82.3561 78.3062 82.2249 78.225 82.0499 78.1625C81.8874 78.0875 81.6936 78.05 81.4686 78.05C81.0936 78.05 80.8124 78.1625 80.6249 78.3875C80.4374 78.6 80.3436 78.9125 80.3436 79.325ZM84.89 84.3125V75.0875H88.565V84.3125H84.89ZM90.5713 84.3125V79.025C90.5713 78.7125 90.4775 78.4687 90.29 78.2937C90.1025 78.1062 89.865 78.0125 89.5775 78.0125C89.3775 78.0125 89.1963 78.0562 89.0338 78.1437C88.8838 78.2187 88.765 78.3312 88.6775 78.4812C88.6025 78.6312 88.565 78.8125 88.565 79.025L87.14 78.5C87.14 77.75 87.3025 77.1062 87.6275 76.5687C87.965 76.0312 88.415 75.6187 88.9775 75.3312C89.54 75.0437 90.1775 74.9 90.89 74.9C91.515 74.9 92.0775 75.05 92.5775 75.35C93.09 75.65 93.4963 76.0687 93.7963 76.6062C94.0963 77.1312 94.2463 77.7562 94.2463 78.4812V84.3125H90.5713ZM96.2525 84.3125V79.025C96.2525 78.7125 96.1588 78.4687 95.9713 78.2937C95.7838 78.1062 95.5463 78.0125 95.2588 78.0125C95.0588 78.0125 94.8775 78.0562 94.715 78.1437C94.565 78.2187 94.4463 78.3312 94.3588 78.4812C94.2838 78.6312 94.2463 78.8125 94.2463 79.025L92.09 79.0437C92.09 78.1812 92.2588 77.4437 92.5963 76.8312C92.9463 76.2062 93.4275 75.7312 94.04 75.4062C94.6525 75.0687 95.3525 74.9 96.14 74.9C96.8775 74.9 97.5275 75.0562 98.09 75.3687C98.665 75.6812 99.115 76.1312 99.44 76.7187C99.765 77.3062 99.9275 78.0125 99.9275 78.8375V84.3125H96.2525ZM106.279 84.5375C105.204 84.5375 104.261 84.3375 103.448 83.9375C102.636 83.525 101.998 82.9562 101.536 82.2312C101.086 81.4937 100.861 80.65 100.861 79.7C100.861 78.7625 101.079 77.9312 101.517 77.2062C101.967 76.4812 102.579 75.9125 103.354 75.5C104.129 75.075 105.004 74.8625 105.979 74.8625C106.942 74.8625 107.792 75.0625 108.529 75.4625C109.267 75.85 109.842 76.3937 110.254 77.0937C110.679 77.7937 110.892 78.5937 110.892 79.4937C110.892 79.6812 110.879 79.8812 110.854 80.0937C110.842 80.2937 110.804 80.5312 110.742 80.8062L102.417 80.8625V78.6125L109.373 78.5562L107.667 79.55C107.667 79.05 107.604 78.6437 107.479 78.3312C107.367 78.0062 107.192 77.7625 106.954 77.6C106.717 77.4375 106.417 77.3562 106.054 77.3562C105.679 77.3562 105.354 77.45 105.079 77.6375C104.804 77.825 104.592 78.0937 104.442 78.4437C104.304 78.7937 104.236 79.2187 104.236 79.7187C104.236 80.2312 104.311 80.6625 104.461 81.0125C104.623 81.35 104.854 81.6062 105.154 81.7812C105.454 81.9562 105.829 82.0437 106.279 82.0437C106.717 82.0437 107.098 81.975 107.423 81.8375C107.761 81.6875 108.067 81.4562 108.342 81.1437L110.179 82.9625C109.717 83.4875 109.161 83.8812 108.511 84.1437C107.861 84.4063 107.117 84.5375 106.279 84.5375ZM111.99 84.3125V75.0875H115.665V84.3125H111.99ZM115.665 79.325L113.958 77.8062C114.433 76.8062 114.983 76.075 115.608 75.6125C116.246 75.1375 117.04 74.9 117.99 74.9C118.415 74.9 118.777 74.95 119.077 75.05C119.39 75.15 119.64 75.2937 119.827 75.4812L117.765 78.4062C117.677 78.3062 117.546 78.225 117.371 78.1625C117.208 78.0875 117.015 78.05 116.79 78.05C116.415 78.05 116.133 78.1625 115.946 78.3875C115.758 78.6 115.665 78.9125 115.665 79.325Z" fill="#FA7C1F"/>
<mask id="mask0_1_107" style="mask-type:alpha" maskUnits="userSpaceOnUse" x="28" y="0" width="64" height="63">
<circle cx="60" cy="31.25" r="25" stroke="#003CD7" stroke-width="12.5"/>
</mask>
<g mask="url(#mask0_1_107)">
<path d="M66.0938 31.2187V-0.78125L28 -0.9375V63.5625H96.5V31.0625L66.0938 31.2187Z" fill="#003CD7"/>
</g>
<rect x="66.25" y="18.75" width="12.5" height="12.5" fill="#FA7C1F"/>
</svg>
